<mxfile>
    <diagram id="S0izEwIFrph8dDXa04ZO" name="第 1 页">
        <mxGraphModel dx="1118" dy="790" grid="1" gridSize="10" guides="1" tooltips="1" connect="1" arrows="1" fold="1" page="1" pageScale="1" pageWidth="827" pageHeight="1169" math="0" shadow="0">
            <root>
                <mxCell id="0"/>
                <mxCell id="1" parent="0"/>
                <mxCell id="46" value="" style="aspect=fixed;perimeter=ellipsePerimeter;html=1;align=center;shadow=0;dashed=0;spacingTop=3;image;image=img/lib/active_directory/generic_server.svg;" vertex="1" parent="1">
                    <mxGeometry x="358" y="100" width="56" height="100" as="geometry"/>
                </mxCell>
                <mxCell id="47" value="" style="aspect=fixed;perimeter=ellipsePerimeter;html=1;align=center;shadow=0;dashed=0;spacingTop=3;image;image=img/lib/active_directory/workstation_client.svg;" vertex="1" parent="1">
                    <mxGeometry x="227.5" y="210" width="42.5" height="50" as="geometry"/>
                </mxCell>
                <mxCell id="48" value="" style="aspect=fixed;perimeter=ellipsePerimeter;html=1;align=center;shadow=0;dashed=0;spacingTop=3;image;image=img/lib/active_directory/workstation_client.svg;" vertex="1" parent="1">
                    <mxGeometry x="364.75" y="260" width="42.5" height="50" as="geometry"/>
                </mxCell>
                <mxCell id="49" value="" style="aspect=fixed;perimeter=ellipsePerimeter;html=1;align=center;shadow=0;dashed=0;spacingTop=3;image;image=img/lib/active_directory/workstation_client.svg;" vertex="1" parent="1">
                    <mxGeometry x="500" y="210" width="42.5" height="50" as="geometry"/>
                </mxCell>
                <mxCell id="50" value="" style="aspect=fixed;perimeter=ellipsePerimeter;html=1;align=center;shadow=0;dashed=0;spacingTop=3;image;image=img/lib/active_directory/workstation_client.svg;" vertex="1" parent="1">
                    <mxGeometry x="500" y="60" width="42.5" height="50" as="geometry"/>
                </mxCell>
                <mxCell id="51" value="" style="aspect=fixed;perimeter=ellipsePerimeter;html=1;align=center;shadow=0;dashed=0;spacingTop=3;image;image=img/lib/active_directory/workstation_client.svg;" vertex="1" parent="1">
                    <mxGeometry x="230" y="62.94" width="40" height="47.06" as="geometry"/>
                </mxCell>
                <mxCell id="52" value="（a）C/S结构" style="text;html=1;align=center;verticalAlign=middle;resizable=0;points=[];autosize=1;fontSize=20;" vertex="1" parent="1">
                    <mxGeometry x="321" y="335" width="140" height="30" as="geometry"/>
                </mxCell>
                <mxCell id="53" value="" style="endArrow=classic;startArrow=classic;html=1;fontSize=20;" edge="1" parent="1" source="46" target="51">
                    <mxGeometry width="50" height="50" relative="1" as="geometry">
                        <mxPoint x="350" y="150" as="sourcePoint"/>
                        <mxPoint x="270" y="90" as="targetPoint"/>
                    </mxGeometry>
                </mxCell>
                <mxCell id="54" value="" style="endArrow=classic;startArrow=classic;html=1;fontSize=20;" edge="1" parent="1" target="46">
                    <mxGeometry width="50" height="50" relative="1" as="geometry">
                        <mxPoint x="510" y="240" as="sourcePoint"/>
                        <mxPoint x="420" y="190" as="targetPoint"/>
                    </mxGeometry>
                </mxCell>
                <mxCell id="55" value="" style="endArrow=classic;startArrow=classic;html=1;fontSize=20;" edge="1" parent="1" source="48" target="46">
                    <mxGeometry width="50" height="50" relative="1" as="geometry">
                        <mxPoint x="364.75" y="250" as="sourcePoint"/>
                        <mxPoint x="274.75" y="200" as="targetPoint"/>
                    </mxGeometry>
                </mxCell>
                <mxCell id="56" value="" style="endArrow=classic;startArrow=classic;html=1;fontSize=20;exitX=-0.036;exitY=0.87;exitDx=0;exitDy=0;exitPerimeter=0;" edge="1" parent="1" source="46" target="47">
                    <mxGeometry width="50" height="50" relative="1" as="geometry">
                        <mxPoint x="360" y="210" as="sourcePoint"/>
                        <mxPoint x="270" y="230" as="targetPoint"/>
                    </mxGeometry>
                </mxCell>
                <mxCell id="58" value="" style="endArrow=classic;startArrow=classic;html=1;fontSize=20;" edge="1" parent="1" source="46">
                    <mxGeometry width="50" height="50" relative="1" as="geometry">
                        <mxPoint x="420" y="130" as="sourcePoint"/>
                        <mxPoint x="500" y="80" as="targetPoint"/>
                    </mxGeometry>
                </mxCell>
                <mxCell id="60" value="Server" style="text;html=1;align=center;verticalAlign=middle;resizable=0;points=[];autosize=1;fontSize=20;" vertex="1" parent="1">
                    <mxGeometry x="351" y="62.94" width="70" height="30" as="geometry"/>
                </mxCell>
                <mxCell id="61" value="PC" style="text;html=1;align=center;verticalAlign=middle;resizable=0;points=[];autosize=1;fontSize=20;" vertex="1" parent="1">
                    <mxGeometry x="530" y="95" width="40" height="30" as="geometry"/>
                </mxCell>
                <mxCell id="62" value="PC" style="text;html=1;align=center;verticalAlign=middle;resizable=0;points=[];autosize=1;fontSize=20;" vertex="1" parent="1">
                    <mxGeometry x="530" y="260" width="40" height="30" as="geometry"/>
                </mxCell>
                <mxCell id="63" value="PC" style="text;html=1;align=center;verticalAlign=middle;resizable=0;points=[];autosize=1;fontSize=20;" vertex="1" parent="1">
                    <mxGeometry x="414" y="280" width="40" height="30" as="geometry"/>
                </mxCell>
                <mxCell id="64" value="PC" style="text;html=1;align=center;verticalAlign=middle;resizable=0;points=[];autosize=1;fontSize=20;" vertex="1" parent="1">
                    <mxGeometry x="250" y="260" width="40" height="30" as="geometry"/>
                </mxCell>
                <mxCell id="65" value="PC" style="text;html=1;align=center;verticalAlign=middle;resizable=0;points=[];autosize=1;fontSize=20;" vertex="1" parent="1">
                    <mxGeometry x="180" y="92.94" width="40" height="30" as="geometry"/>
                </mxCell>
                <mxCell id="66" value="" style="aspect=fixed;perimeter=ellipsePerimeter;html=1;align=center;shadow=0;dashed=0;spacingTop=3;image;image=img/lib/active_directory/generic_server.svg;" vertex="1" parent="1">
                    <mxGeometry x="357" y="400" width="56" height="100" as="geometry"/>
                </mxCell>
                <mxCell id="67" value="" style="aspect=fixed;perimeter=ellipsePerimeter;html=1;align=center;shadow=0;dashed=0;spacingTop=3;image;image=img/lib/active_directory/workstation_client.svg;" vertex="1" parent="1">
                    <mxGeometry x="363.75" y="595" width="42.5" height="50" as="geometry"/>
                </mxCell>
                <mxCell id="70" value="" style="aspect=fixed;perimeter=ellipsePerimeter;html=1;align=center;shadow=0;dashed=0;spacingTop=3;image;image=img/lib/active_directory/workstation_client.svg;" vertex="1" parent="1">
                    <mxGeometry x="506" y="525" width="42.5" height="50" as="geometry"/>
                </mxCell>
                <mxCell id="71" value="" style="aspect=fixed;perimeter=ellipsePerimeter;html=1;align=center;shadow=0;dashed=0;spacingTop=3;image;image=img/lib/active_directory/workstation_client.svg;" vertex="1" parent="1">
                    <mxGeometry x="233.5" y="527.9399999999999" width="40" height="47.06" as="geometry"/>
                </mxCell>
                <mxCell id="72" value="（b）P2P结构" style="text;html=1;align=center;verticalAlign=middle;resizable=0;points=[];autosize=1;fontSize=20;" vertex="1" parent="1">
                    <mxGeometry x="327" y="665" width="140" height="30" as="geometry"/>
                </mxCell>
                <mxCell id="73" value="" style="endArrow=classic;startArrow=classic;html=1;fontSize=20;" edge="1" source="66" target="71" parent="1">
                    <mxGeometry width="50" height="50" relative="1" as="geometry">
                        <mxPoint x="395" y="455" as="sourcePoint"/>
                        <mxPoint x="315" y="395" as="targetPoint"/>
                    </mxGeometry>
                </mxCell>
                <mxCell id="76" value="" style="endArrow=classic;startArrow=classic;html=1;fontSize=20;" edge="1" source="66" target="67" parent="1">
                    <mxGeometry width="50" height="50" relative="1" as="geometry">
                        <mxPoint x="405" y="515" as="sourcePoint"/>
                        <mxPoint x="315" y="535" as="targetPoint"/>
                    </mxGeometry>
                </mxCell>
                <mxCell id="77" value="" style="endArrow=classic;startArrow=classic;html=1;fontSize=20;" edge="1" source="66" parent="1" target="70">
                    <mxGeometry width="50" height="50" relative="1" as="geometry">
                        <mxPoint x="465" y="435" as="sourcePoint"/>
                        <mxPoint x="545" y="385" as="targetPoint"/>
                    </mxGeometry>
                </mxCell>
                <mxCell id="78" value="Server" style="text;html=1;align=center;verticalAlign=middle;resizable=0;points=[];autosize=1;fontSize=20;" vertex="1" parent="1">
                    <mxGeometry x="427" y="405" width="70" height="30" as="geometry"/>
                </mxCell>
                <mxCell id="80" value="PC" style="text;html=1;align=center;verticalAlign=middle;resizable=0;points=[];autosize=1;fontSize=20;" vertex="1" parent="1">
                    <mxGeometry x="556" y="555" width="40" height="30" as="geometry"/>
                </mxCell>
                <mxCell id="82" value="PC" style="text;html=1;align=center;verticalAlign=middle;resizable=0;points=[];autosize=1;fontSize=20;" vertex="1" parent="1">
                    <mxGeometry x="186" y="555" width="40" height="30" as="geometry"/>
                </mxCell>
                <mxCell id="83" value="PC" style="text;html=1;align=center;verticalAlign=middle;resizable=0;points=[];autosize=1;fontSize=20;" vertex="1" parent="1">
                    <mxGeometry x="420" y="615" width="40" height="30" as="geometry"/>
                </mxCell>
                <mxCell id="88" value="" style="endArrow=classic;startArrow=classic;html=1;fontSize=20;" edge="1" parent="1" source="71" target="70">
                    <mxGeometry width="50" height="50" relative="1" as="geometry">
                        <mxPoint x="396" y="505" as="sourcePoint"/>
                        <mxPoint x="446" y="465" as="targetPoint"/>
                    </mxGeometry>
                </mxCell>
                <mxCell id="90" value="" style="endArrow=classic;startArrow=classic;html=1;fontSize=20;exitX=0.75;exitY=1;exitDx=0;exitDy=0;" edge="1" parent="1" source="71" target="67">
                    <mxGeometry width="50" height="50" relative="1" as="geometry">
                        <mxPoint x="223.5" y="635" as="sourcePoint"/>
                        <mxPoint x="273.5" y="585" as="targetPoint"/>
                    </mxGeometry>
                </mxCell>
                <mxCell id="91" value="" style="endArrow=classic;startArrow=classic;html=1;fontSize=20;" edge="1" parent="1" source="67" target="70">
                    <mxGeometry width="50" height="50" relative="1" as="geometry">
                        <mxPoint x="447" y="625" as="sourcePoint"/>
                        <mxPoint x="497" y="575" as="targetPoint"/>
                    </mxGeometry>
                </mxCell>
                <mxCell id="92" value="不能撒旦阿达阿达 阿" style="rounded=0;whiteSpace=wrap;html=1;fontSize=20;" vertex="1" parent="1">
                    <mxGeometry x="120" y="880" width="41" height="260" as="geometry"/>
                </mxCell>
                <mxCell id="93" value="" style="rounded=0;whiteSpace=wrap;html=1;fontSize=20;" vertex="1" parent="1">
                    <mxGeometry x="231" y="880" width="60" height="260" as="geometry"/>
                </mxCell>
                <mxCell id="94" value="" style="rounded=0;whiteSpace=wrap;html=1;fontSize=20;" vertex="1" parent="1">
                    <mxGeometry x="491" y="880" width="60" height="260" as="geometry"/>
                </mxCell>
                <mxCell id="95" value="" style="rounded=0;whiteSpace=wrap;html=1;fontSize=20;" vertex="1" parent="1">
                    <mxGeometry x="357" y="880" width="60" height="260" as="geometry"/>
                </mxCell>
                <mxCell id="96" value="" style="rounded=0;whiteSpace=wrap;html=1;fontSize=20;" vertex="1" parent="1">
                    <mxGeometry x="621" y="880" width="60" height="260" as="geometry"/>
                </mxCell>
                <mxCell id="100" style="edgeStyle=orthogonalEdgeStyle;rounded=0;orthogonalLoop=1;jettySize=auto;html=1;fontSize=20;" edge="1" parent="1" source="97" target="93">
                    <mxGeometry relative="1" as="geometry"/>
                </mxCell>
                <mxCell id="101" style="edgeStyle=orthogonalEdgeStyle;rounded=0;orthogonalLoop=1;jettySize=auto;html=1;fontSize=20;" edge="1" parent="1" source="97" target="95">
                    <mxGeometry relative="1" as="geometry"/>
                </mxCell>
                <mxCell id="97" value="" style="rounded=0;whiteSpace=wrap;html=1;fontSize=20;" vertex="1" parent="1">
                    <mxGeometry x="298" y="760" width="176" height="40" as="geometry"/>
                </mxCell>
                <mxCell id="98" style="edgeStyle=orthogonalEdgeStyle;rounded=0;orthogonalLoop=1;jettySize=auto;html=1;fontSize=20;" edge="1" parent="1" source="97" target="97">
                    <mxGeometry relative="1" as="geometry"/>
                </mxCell>
                <mxCell id="106" value="" style="line;strokeWidth=2;html=1;fontSize=20;" vertex="1" parent="1">
                    <mxGeometry x="131" y="775" width="160" height="10" as="geometry"/>
                </mxCell>
                <mxCell id="107" value="" style="line;strokeWidth=2;direction=south;html=1;fontSize=20;" vertex="1" parent="1">
                    <mxGeometry x="136" y="775" width="10" height="105" as="geometry"/>
                </mxCell>
            </root>
        </mxGraphModel>
    </diagram>
</mxfile>